<svg width="251" height="250" viewBox="0 0 251 250" fill="none" xmlns="http://www.w3.org/2000/svg">
<g clip-path="url(#clip0_22_2455)">
<rect x="0.5" width="250" height="250" rx="125" fill="#FEF2EE"/>
<path d="M48.6667 117.833C48.6667 100.332 48.6667 91.5809 52.0727 84.8961C55.0688 79.0161 59.8494 74.2354 65.7295 71.2394C72.4142 67.8333 81.165 67.8333 98.6667 67.8333H165.333C182.835 67.8333 191.586 67.8333 198.271 71.2394C204.151 74.2354 208.931 79.0161 211.927 84.8961C215.333 91.5809 215.333 100.332 215.333 117.833V226.167C215.333 243.668 215.333 252.419 211.927 259.104C208.931 264.984 204.151 269.765 198.271 272.761C191.586 276.167 182.835 276.167 165.333 276.167H98.6667C81.165 276.167 72.4142 276.167 65.7295 272.761C59.8494 269.765 55.0688 264.984 52.0727 259.104C48.6667 252.419 48.6667 243.668 48.6667 226.167V117.833Z" fill="#FBD8CC"/>
<path d="M152.833 161.583H90.3334M111.167 203.25H90.3334M173.667 119.917H90.3334M215.333 117.833V226.167C215.333 243.668 215.333 252.419 211.927 259.104C208.931 264.984 204.151 269.765 198.271 272.761C191.586 276.167 182.835 276.167 165.333 276.167H98.6667C81.165 276.167 72.4142 276.167 65.7295 272.761C59.8494 269.765 55.0688 264.984 52.0727 259.104C48.6667 252.419 48.6667 243.668 48.6667 226.167V117.833C48.6667 100.332 48.6667 91.5809 52.0727 84.8961C55.0688 79.0161 59.8494 74.2354 65.7295 71.2394C72.4142 67.8333 81.165 67.8333 98.6667 67.8333H165.333C182.835 67.8333 191.586 67.8333 198.271 71.2394C204.151 74.2354 208.931 79.0161 211.927 84.8961C215.333 91.5809 215.333 100.332 215.333 117.833Z" stroke="#FEF2EE" stroke-width="12" stroke-linecap="round" stroke-linejoin="round"/>
</g>
<defs>
<clipPath id="clip0_22_2455">
<rect x="0.5" width="250" height="250" rx="125" fill="white"/>
</clipPath>
</defs>
</svg>
