<svg width="90" height="90" viewBox="0 0 90 90" fill="none" xmlns="http://www.w3.org/2000/svg">
<g clip-path="url(#clip0_1070_4592)">
<rect width="90" height="90" rx="45" fill="url(#paint0_linear_1070_4592)"/>
<path d="M7.5 52.3817C7.5 46.7861 12.0361 42.25 17.6317 42.25C20.539 42.25 23.1201 40.3896 24.0395 37.6315L24.375 36.625C24.5332 36.1504 24.6123 35.913 24.697 35.7025C25.7777 33.0142 28.3102 31.1889 31.2023 31.0137C31.4288 31 31.679 31 32.1793 31H57.8207C58.321 31 58.5712 31 58.7977 31.0137C61.6898 31.1889 64.2223 33.0142 65.303 35.7025C65.3877 35.913 65.4668 36.1504 65.625 36.625L65.9605 37.6315C66.8799 40.3896 69.461 42.25 72.3683 42.25C77.9639 42.25 82.5 46.7861 82.5 52.3817V84.25C82.5 90.5506 82.5 93.7009 81.2738 96.1074C80.1952 98.2242 78.4742 99.9452 76.3574 101.024C73.9509 102.25 70.8006 102.25 64.5 102.25H25.5C19.1994 102.25 16.0491 102.25 13.6426 101.024C11.5258 99.9452 9.80475 98.2242 8.72618 96.1074C7.5 93.7009 7.5 90.5506 7.5 84.25V52.3817Z" fill="#E6E6E6"/>
<path d="M45 85.375C54.3198 85.375 61.875 77.8198 61.875 68.5C61.875 59.1802 54.3198 51.625 45 51.625C35.6802 51.625 28.125 59.1802 28.125 68.5C28.125 77.8198 35.6802 85.375 45 85.375Z" fill="#E6E6E6"/>
<path d="M7.5 52.3817C7.5 46.7861 12.0361 42.25 17.6317 42.25C20.539 42.25 23.1201 40.3896 24.0395 37.6315L24.375 36.625C24.5332 36.1504 24.6123 35.913 24.697 35.7025C25.7777 33.0142 28.3102 31.1889 31.2023 31.0137C31.4288 31 31.679 31 32.1793 31H57.8207C58.321 31 58.5712 31 58.7977 31.0137C61.6898 31.1889 64.2223 33.0142 65.303 35.7025C65.3877 35.913 65.4668 36.1504 65.625 36.625L65.9605 37.6315C66.8799 40.3896 69.461 42.25 72.3683 42.25C77.9639 42.25 82.5 46.7861 82.5 52.3817V84.25C82.5 90.5506 82.5 93.7009 81.2738 96.1074C80.1952 98.2242 78.4742 99.9452 76.3574 101.024C73.9509 102.25 70.8006 102.25 64.5 102.25H25.5C19.1994 102.25 16.0491 102.25 13.6426 101.024C11.5258 99.9452 9.80475 98.2242 8.72618 96.1074C7.5 93.7009 7.5 90.5506 7.5 84.25V52.3817Z" stroke="#F2F2F2" stroke-width="4" stroke-linecap="round" stroke-linejoin="round"/>
<path d="M45 85.375C54.3198 85.375 61.875 77.8198 61.875 68.5C61.875 59.1802 54.3198 51.625 45 51.625C35.6802 51.625 28.125 59.1802 28.125 68.5C28.125 77.8198 35.6802 85.375 45 85.375Z" stroke="#F2F2F2" stroke-width="4" stroke-linecap="round" stroke-linejoin="round"/>
</g>
<defs>
<linearGradient id="paint0_linear_1070_4592" x1="45" y1="0" x2="46.8" y2="84.96" gradientUnits="userSpaceOnUse">
<stop stop-color="#F2F2F2"/>
<stop offset="0.549865" stop-color="#F2F2F2" stop-opacity="0.625677"/>
<stop offset="1" stop-color="#F2F2F2" stop-opacity="0"/>
</linearGradient>
<clipPath id="clip0_1070_4592">
<rect width="90" height="90" rx="45" fill="white"/>
</clipPath>
</defs>
</svg>
