<svg width="24" height="24" viewBox="0 0 24 24" fill="none" xmlns="http://www.w3.org/2000/svg">
<path d="M17.8778 20.0899C16.1694 21.3312 14.1118 21.9998 12 21.9998C9.88818 21.9998 7.8306 21.3312 6.12212 20.0899M16.3837 3.01182C18.2818 3.93756 19.838 5.44044 20.8295 7.30504C21.8209 9.16964 22.1966 11.3002 21.9027 13.3915M2.09739 13.3914C1.80349 11.3002 2.17917 9.16955 3.1706 7.30494C4.16202 5.44034 5.71829 3.93747 7.61636 3.01172M17.5 11.9998C17.5 15.0373 15.0375 17.4998 12 17.4998C8.96241 17.4998 6.49997 15.0373 6.49997 11.9998C6.49997 8.96219 8.96241 6.49976 12 6.49976C15.0375 6.49976 17.5 8.96219 17.5 11.9998Z" stroke="black" stroke-width="1.5" stroke-linecap="round" stroke-linejoin="round"/>
</svg>
