<svg width="72" height="72" viewBox="0 0 72 72" fill="none" xmlns="http://www.w3.org/2000/svg">
<g clip-path="url(#clip0_1070_4579)">
<rect width="72" height="72" rx="36" fill="#FDE9E2"/>
<path d="M12 39.2008C12 34.1603 12 31.6401 12.9809 29.7149C13.8438 28.0214 15.2206 26.6446 16.9141 25.7817C18.8393 24.8008 21.3595 24.8008 26.4 24.8008H45.6C50.6405 24.8008 53.1607 24.8008 55.0859 25.7817C56.7794 26.6446 58.1562 28.0214 59.0191 29.7149C60 31.6401 60 34.1603 60 39.2008V70.4008C60 75.4413 60 77.9615 59.0191 79.8867C58.1562 81.5802 56.7794 82.957 55.0859 83.8198C53.1607 84.8008 50.6405 84.8008 45.6 84.8008H26.4C21.3595 84.8008 18.8393 84.8008 16.9141 83.8198C15.2206 82.957 13.8438 81.5802 12.9809 79.8867C12 77.9615 12 75.4413 12 70.4008V39.2008Z" fill="#AE8779"/>
<path d="M42 51.8008H24M30 63.8008H24M48 39.8008H24M60 39.2008V70.4008C60 75.4413 60 77.9615 59.0191 79.8867C58.1562 81.5802 56.7794 82.957 55.0859 83.8198C53.1607 84.8008 50.6405 84.8008 45.6 84.8008H26.4C21.3595 84.8008 18.8393 84.8008 16.9141 83.8198C15.2206 82.957 13.8438 81.5802 12.9809 79.8867C12 77.9615 12 75.4413 12 70.4008V39.2008C12 34.1603 12 31.6401 12.9809 29.7149C13.8438 28.0214 15.2206 26.6446 16.9141 25.7817C18.8393 24.8008 21.3595 24.8008 26.4 24.8008H45.6C50.6405 24.8008 53.1607 24.8008 55.0859 25.7817C56.7794 26.6446 58.1562 28.0214 59.0191 29.7149C60 31.6401 60 34.1603 60 39.2008Z" stroke="#FDE9E2" stroke-width="4" stroke-linecap="round" stroke-linejoin="round"/>
</g>
<defs>
<clipPath id="clip0_1070_4579">
<rect width="72" height="72" rx="36" fill="white"/>
</clipPath>
</defs>
</svg>
