<svg width="180" height="180" viewBox="0 0 180 180" fill="none" xmlns="http://www.w3.org/2000/svg">
<g clip-path="url(#clip0_1070_4570)">
<rect width="180" height="180" rx="90" fill="url(#paint0_linear_1070_4570)"/>
<path d="M30 98C30 85.3988 30 79.0982 32.4524 74.2852C34.6095 70.0516 38.0516 66.6095 42.2852 64.4524C47.0982 62 53.3988 62 66 62H114C126.601 62 132.902 62 137.715 64.4524C141.948 66.6095 145.39 70.0516 147.548 74.2852C150 79.0982 150 85.3988 150 98V176C150 188.601 150 194.902 147.548 199.715C145.39 203.948 141.948 207.39 137.715 209.548C132.902 212 126.601 212 114 212H66C53.3988 212 47.0982 212 42.2852 209.548C38.0516 207.39 34.6095 203.948 32.4524 199.715C30 194.902 30 188.601 30 176V98Z" fill="#E6E6E6"/>
<path d="M105 129.5H60M75 159.5H60M120 99.5H60M150 98V176C150 188.601 150 194.902 147.548 199.715C145.39 203.948 141.948 207.39 137.715 209.548C132.902 212 126.601 212 114 212H66C53.3988 212 47.0982 212 42.2852 209.548C38.0516 207.39 34.6095 203.948 32.4524 199.715C30 194.902 30 188.601 30 176V98C30 85.3988 30 79.0982 32.4524 74.2852C34.6095 70.0516 38.0516 66.6095 42.2852 64.4524C47.0982 62 53.3988 62 66 62H114C126.601 62 132.902 62 137.715 64.4524C141.948 66.6095 145.39 70.0516 147.548 74.2852C150 79.0982 150 85.3988 150 98Z" stroke="#F2F2F2" stroke-width="12" stroke-linecap="round" stroke-linejoin="round"/>
</g>
<defs>
<linearGradient id="paint0_linear_1070_4570" x1="90" y1="0" x2="93.6" y2="169.92" gradientUnits="userSpaceOnUse">
<stop stop-color="#F2F2F2"/>
<stop offset="0.549865" stop-color="#F2F2F2" stop-opacity="0.625677"/>
<stop offset="1" stop-color="#F2F2F2" stop-opacity="0"/>
</linearGradient>
<clipPath id="clip0_1070_4570">
<rect width="180" height="180" rx="90" fill="white"/>
</clipPath>
</defs>
</svg>
