<svg width="90" height="90" viewBox="0 0 90 90" fill="none" xmlns="http://www.w3.org/2000/svg">
<g clip-path="url(#clip0_1070_4585)">
<rect width="90" height="90" rx="45" fill="url(#paint0_linear_1070_4585)"/>
<path d="M7.5 43.25H64.5C70.8006 43.25 73.9509 43.25 76.3574 44.4762C78.4742 45.5548 80.1952 47.2758 81.2738 49.3926C82.5 51.7991 82.5 54.9494 82.5 61.25V77.75C82.5 84.0506 82.5 87.2009 81.2738 89.6074C80.1952 91.7242 78.4742 93.4452 76.3574 94.5238C73.9509 95.75 70.8006 95.75 64.5 95.75H25.5C19.1994 95.75 16.0491 95.75 13.6426 94.5238C11.5258 93.4452 9.80475 91.7242 8.72618 89.6074C7.5 87.2009 7.5 84.0506 7.5 77.75V43.25Z" fill="#E6E6E6"/>
<path d="M48.75 43.25L44.5667 34.8834C43.3628 32.4755 42.7607 31.2715 41.8626 30.3919C41.0684 29.614 40.1112 29.0224 39.0603 28.6599C37.8719 28.25 36.5258 28.25 33.8336 28.25H19.5C15.2996 28.25 13.1994 28.25 11.5951 29.0675C10.1839 29.7865 9.0365 30.9339 8.31745 32.3451C7.5 33.9494 7.5 36.0496 7.5 40.25V43.25M7.5 43.25H64.5C70.8006 43.25 73.9509 43.25 76.3574 44.4762C78.4742 45.5548 80.1952 47.2758 81.2738 49.3926C82.5 51.7991 82.5 54.9494 82.5 61.25V77.75C82.5 84.0506 82.5 87.2009 81.2738 89.6074C80.1952 91.7242 78.4742 93.4452 76.3574 94.5238C73.9509 95.75 70.8006 95.75 64.5 95.75H25.5C19.1994 95.75 16.0491 95.75 13.6426 94.5238C11.5258 93.4452 9.80475 91.7242 8.72618 89.6074C7.5 87.2009 7.5 84.0506 7.5 77.75V43.25ZM45 80.75V58.25M33.75 69.5H56.25" stroke="#E6E6E6" stroke-width="4" stroke-linecap="round" stroke-linejoin="round"/>
</g>
<defs>
<linearGradient id="paint0_linear_1070_4585" x1="45" y1="0" x2="46.8" y2="84.96" gradientUnits="userSpaceOnUse">
<stop stop-color="#F2F2F2"/>
<stop offset="0.549865" stop-color="#F2F2F2" stop-opacity="0.625677"/>
<stop offset="1" stop-color="#F2F2F2" stop-opacity="0"/>
</linearGradient>
<clipPath id="clip0_1070_4585">
<rect width="90" height="90" rx="45" fill="white"/>
</clipPath>
</defs>
</svg>
