<svg width="99" height="44" viewBox="0 0 99 44" fill="none" xmlns="http://www.w3.org/2000/svg">
<path d="M12.816 37.432C10.824 37.432 9.048 37.012 7.488 36.172C5.952 35.332 4.74 34.18 3.852 32.716C2.988 31.252 2.556 29.584 2.556 27.712V10.18H6.804V27.532C6.804 28.708 7.056 29.752 7.56 30.664C8.088 31.576 8.796 32.284 9.684 32.788C10.596 33.292 11.64 33.544 12.816 33.544C14.016 33.544 15.06 33.292 15.948 32.788C16.86 32.284 17.568 31.576 18.072 30.664C18.6 29.752 18.864 28.708 18.864 27.532V10.18H23.076V27.712C23.076 29.584 22.644 31.252 21.78 32.716C20.916 34.18 19.704 35.332 18.144 36.172C16.608 37.012 14.832 37.432 12.816 37.432ZM34.4849 37.432C32.4929 37.432 30.7409 36.94 29.2289 35.956C27.7409 34.972 26.6969 33.652 26.0969 31.996L29.2289 30.52C29.7569 31.624 30.4769 32.5 31.3889 33.148C32.3249 33.796 33.3569 34.12 34.4849 34.12C35.4449 34.12 36.2249 33.904 36.8249 33.472C37.4249 33.04 37.7249 32.452 37.7249 31.708C37.7249 31.228 37.5929 30.844 37.3289 30.556C37.0649 30.244 36.7289 29.992 36.3209 29.8C35.9369 29.608 35.5409 29.464 35.1329 29.368L32.0729 28.504C30.3929 28.024 29.1329 27.304 28.2929 26.344C27.4769 25.36 27.0689 24.22 27.0689 22.924C27.0689 21.748 27.3689 20.728 27.9689 19.864C28.5689 18.976 29.3969 18.292 30.4529 17.812C31.5089 17.332 32.6969 17.092 34.0169 17.092C35.7929 17.092 37.3769 17.536 38.7689 18.424C40.1609 19.288 41.1449 20.5 41.7209 22.06L38.5889 23.536C38.2049 22.6 37.5929 21.856 36.7529 21.304C35.9369 20.752 35.0129 20.476 33.9809 20.476C33.0929 20.476 32.3849 20.692 31.8569 21.124C31.3289 21.532 31.0649 22.072 31.0649 22.744C31.0649 23.2 31.1849 23.584 31.4249 23.896C31.6649 24.184 31.9769 24.424 32.3609 24.616C32.7449 24.784 33.1409 24.928 33.5489 25.048L36.7169 25.984C38.3249 26.44 39.5609 27.16 40.4249 28.144C41.2889 29.104 41.7209 30.256 41.7209 31.6C41.7209 32.752 41.4089 33.772 40.7849 34.66C40.1849 35.524 39.3449 36.208 38.2649 36.712C37.1849 37.192 35.9249 37.432 34.4849 37.432ZM54.1308 37.432C52.1868 37.432 50.4588 36.988 48.9468 36.1C47.4588 35.188 46.2948 33.964 45.4548 32.428C44.6148 30.868 44.1948 29.128 44.1948 27.208C44.1948 25.24 44.6148 23.5 45.4548 21.988C46.3188 20.476 47.4708 19.288 48.9108 18.424C50.3508 17.536 51.9828 17.092 53.8068 17.092C55.2708 17.092 56.5788 17.344 57.7308 17.848C58.8828 18.352 59.8548 19.048 60.6468 19.936C61.4388 20.8 62.0388 21.796 62.4468 22.924C62.8788 24.052 63.0948 25.252 63.0948 26.524C63.0948 26.836 63.0828 27.16 63.0588 27.496C63.0348 27.832 62.9868 28.144 62.9148 28.432H47.3988V25.192H60.6108L58.6668 26.668C58.9068 25.492 58.8228 24.448 58.4148 23.536C58.0308 22.6 57.4308 21.868 56.6148 21.34C55.8228 20.788 54.8868 20.512 53.8068 20.512C52.7268 20.512 51.7668 20.788 50.9268 21.34C50.0868 21.868 49.4388 22.636 48.9828 23.644C48.5268 24.628 48.3468 25.828 48.4428 27.244C48.3228 28.564 48.5028 29.716 48.9828 30.7C49.4868 31.684 50.1828 32.452 51.0708 33.004C51.9828 33.556 53.0148 33.832 54.1668 33.832C55.3428 33.832 56.3388 33.568 57.1548 33.04C57.9948 32.512 58.6548 31.828 59.1348 30.988L62.4468 32.608C62.0628 33.52 61.4628 34.348 60.6468 35.092C59.8548 35.812 58.8948 36.388 57.7668 36.82C56.6628 37.228 55.4508 37.432 54.1308 37.432ZM66.3449 37V17.524H70.2329V21.448L69.8729 20.872C70.3049 19.6 71.0009 18.688 71.9609 18.136C72.9209 17.56 74.0729 17.272 75.4169 17.272H76.6049V20.98H74.9129C73.5689 20.98 72.4769 21.4 71.6369 22.24C70.8209 23.056 70.4129 24.232 70.4129 25.768V37H66.3449ZM85.8679 37.432C83.8759 37.432 82.1239 36.94 80.6119 35.956C79.1239 34.972 78.0799 33.652 77.4799 31.996L80.6119 30.52C81.1399 31.624 81.8599 32.5 82.7719 33.148C83.7079 33.796 84.7399 34.12 85.8679 34.12C86.8279 34.12 87.6079 33.904 88.2079 33.472C88.8079 33.04 89.1079 32.452 89.1079 31.708C89.1079 31.228 88.9759 30.844 88.7119 30.556C88.4479 30.244 88.1119 29.992 87.7039 29.8C87.3199 29.608 86.9239 29.464 86.5159 29.368L83.4559 28.504C81.7759 28.024 80.5159 27.304 79.6759 26.344C78.8599 25.36 78.4519 24.22 78.4519 22.924C78.4519 21.748 78.7519 20.728 79.3519 19.864C79.9519 18.976 80.7799 18.292 81.8359 17.812C82.8919 17.332 84.0799 17.092 85.3999 17.092C87.1759 17.092 88.7599 17.536 90.1519 18.424C91.5439 19.288 92.5279 20.5 93.1039 22.06L89.9719 23.536C89.5879 22.6 88.9759 21.856 88.1359 21.304C87.3199 20.752 86.3959 20.476 85.3639 20.476C84.4759 20.476 83.7679 20.692 83.2399 21.124C82.7119 21.532 82.4479 22.072 82.4479 22.744C82.4479 23.2 82.5679 23.584 82.8079 23.896C83.0479 24.184 83.3599 24.424 83.7439 24.616C84.1279 24.784 84.5239 24.928 84.9319 25.048L88.0999 25.984C89.7079 26.44 90.9439 27.16 91.8079 28.144C92.6719 29.104 93.1039 30.256 93.1039 31.6C93.1039 32.752 92.7919 33.772 92.1679 34.66C91.5679 35.524 90.7279 36.208 89.6479 36.712C88.5679 37.192 87.3079 37.432 85.8679 37.432Z" fill="black"/>
</svg>
