<svg width="25" height="20" viewBox="0 0 25 20" fill="none" xmlns="http://www.w3.org/2000/svg">
<path d="M3.71 16.168C2.954 16.168 2.296 15.9813 1.736 15.608C1.176 15.2347 0.779333 14.7307 0.546 14.096L1.582 13.592C1.79667 14.04 2.09067 14.3947 2.464 14.656C2.83733 14.9173 3.25267 15.048 3.71 15.048C4.12067 15.048 4.46133 14.95 4.732 14.754C5.00267 14.558 5.138 14.3013 5.138 13.984C5.138 13.76 5.07267 13.5827 4.942 13.452C4.82067 13.312 4.67133 13.2047 4.494 13.13C4.31667 13.046 4.15333 12.9853 4.004 12.948L2.87 12.626C2.18867 12.43 1.68933 12.15 1.372 11.786C1.064 11.422 0.91 10.9973 0.91 10.512C0.91 10.064 1.022 9.67667 1.246 9.35C1.47933 9.014 1.792 8.75267 2.184 8.566C2.58533 8.37933 3.03333 8.286 3.528 8.286C4.19067 8.286 4.78333 8.454 5.306 8.79C5.838 9.126 6.216 9.59733 6.44 10.204L5.376 10.694C5.208 10.302 4.956 9.994 4.62 9.77C4.284 9.53667 3.906 9.42 3.486 9.42C3.10333 9.42 2.8 9.518 2.576 9.714C2.352 9.90067 2.24 10.1387 2.24 10.428C2.24 10.6427 2.296 10.82 2.408 10.96C2.52 11.0907 2.65533 11.1933 2.814 11.268C2.97267 11.3333 3.12667 11.3893 3.276 11.436L4.508 11.8C5.124 11.9773 5.6 12.2527 5.936 12.626C6.28133 12.9993 6.454 13.4473 6.454 13.97C6.454 14.39 6.33733 14.768 6.104 15.104C5.87067 15.44 5.54867 15.7013 5.138 15.888C4.72733 16.0747 4.25133 16.168 3.71 16.168ZM10.8324 16.168C10.2911 16.168 9.80106 16.042 9.36239 15.79C8.93306 15.538 8.59706 15.188 8.35439 14.74C8.12106 14.2827 8.00439 13.76 8.00439 13.172V8.454H9.30639V13.032C9.30639 13.4053 9.38106 13.732 9.53039 14.012C9.68906 14.292 9.90372 14.5113 10.1744 14.67C10.4544 14.8287 10.7717 14.908 11.1264 14.908C11.4811 14.908 11.7937 14.8287 12.0644 14.67C12.3444 14.5113 12.5591 14.2827 12.7084 13.984C12.8671 13.6853 12.9464 13.3307 12.9464 12.92V8.454H14.2624V16H12.9884V14.53L13.1984 14.656C13.0211 15.132 12.7177 15.5053 12.2884 15.776C11.8684 16.0373 11.3831 16.168 10.8324 16.168ZM16.2795 16V8.454H17.5535V9.924L17.3435 9.798C17.5302 9.322 17.8288 8.95333 18.2395 8.692C18.6595 8.42133 19.1495 8.286 19.7095 8.286C20.2508 8.286 20.7315 8.40733 21.1515 8.65C21.5808 8.89267 21.9168 9.22867 22.1595 9.658C22.4115 10.0873 22.5375 10.5727 22.5375 11.114V16H21.2215V11.534C21.2215 11.114 21.1468 10.7593 20.9975 10.47C20.8482 10.1807 20.6335 9.95667 20.3535 9.798C20.0828 9.63 19.7702 9.546 19.4155 9.546C19.0608 9.546 18.7435 9.63 18.4635 9.798C18.1928 9.95667 17.9782 10.1853 17.8195 10.484C17.6608 10.7733 17.5815 11.1233 17.5815 11.534V16H16.2795Z" fill="black"/>
</svg>
