<svg width="41" height="20" viewBox="0 0 41 20" fill="none" xmlns="http://www.w3.org/2000/svg">
<path d="M1.806 16V9.7H0.364V8.454H1.806V7.922C1.806 7.38067 1.92267 6.92333 2.156 6.55C2.39867 6.17667 2.716 5.892 3.108 5.696C3.50933 5.5 3.95267 5.402 4.438 5.402C4.54067 5.402 4.65267 5.41133 4.774 5.43C4.90467 5.43933 5.012 5.45333 5.096 5.472V6.634C5.02133 6.61533 4.93267 6.606 4.83 6.606C4.72733 6.59667 4.648 6.592 4.592 6.592C4.16267 6.592 3.808 6.69467 3.528 6.9C3.25733 7.10533 3.122 7.446 3.122 7.922V8.454H4.914V9.7H3.122V16H1.806ZM9.80098 16.168C9.07298 16.168 8.41498 16 7.82698 15.664C7.23898 15.3187 6.77232 14.8473 6.42698 14.25C6.08165 13.6527 5.90898 12.976 5.90898 12.22C5.90898 11.464 6.07698 10.792 6.41298 10.204C6.75832 9.616 7.22498 9.14933 7.81298 8.804C8.40098 8.45867 9.06365 8.286 9.80098 8.286C10.529 8.286 11.187 8.45867 11.775 8.804C12.363 9.14 12.825 9.602 13.161 10.19C13.5063 10.778 13.679 11.4547 13.679 12.22C13.679 12.9853 13.5017 13.6667 13.147 14.264C12.7923 14.852 12.321 15.3187 11.733 15.664C11.1543 16 10.5103 16.168 9.80098 16.168ZM9.80098 14.908C10.2677 14.908 10.6877 14.7913 11.061 14.558C11.4437 14.3247 11.7423 14.0027 11.957 13.592C12.181 13.1813 12.293 12.724 12.293 12.22C12.293 11.7067 12.181 11.254 11.957 10.862C11.7423 10.4607 11.4437 10.1433 11.061 9.91C10.6877 9.66733 10.2677 9.546 9.80098 9.546C9.32498 9.546 8.89565 9.66733 8.51298 9.91C8.13965 10.1433 7.84098 10.4607 7.61698 10.862C7.39298 11.254 7.28098 11.7067 7.28098 12.22C7.28098 12.724 7.39298 13.1813 7.61698 13.592C7.84098 14.0027 8.13965 14.3247 8.51298 14.558C8.89565 14.7913 9.32498 14.908 9.80098 14.908ZM15.3771 16V5.402H16.6791V16H15.3771ZM22.1294 16.168C21.4201 16.168 20.7807 15.9953 20.2114 15.65C19.6514 15.3047 19.2081 14.8333 18.8814 14.236C18.5547 13.6387 18.3914 12.9713 18.3914 12.234C18.3914 11.478 18.5547 10.806 18.8814 10.218C19.2081 9.62067 19.6514 9.14933 20.2114 8.804C20.7807 8.45867 21.4201 8.286 22.1294 8.286C22.7547 8.286 23.3101 8.42133 23.7954 8.692C24.2807 8.95333 24.6634 9.308 24.9434 9.756L24.7334 10.078V5.402H26.0494V16H24.7754V14.39L24.9434 14.614C24.6821 15.1087 24.2994 15.4913 23.7954 15.762C23.3007 16.0327 22.7454 16.168 22.1294 16.168ZM22.2414 14.908C22.7174 14.908 23.1421 14.7913 23.5154 14.558C23.8887 14.3247 24.1827 14.0073 24.3974 13.606C24.6214 13.1953 24.7334 12.738 24.7334 12.234C24.7334 11.7207 24.6214 11.2633 24.3974 10.862C24.1827 10.4513 23.8887 10.1293 23.5154 9.896C23.1421 9.66267 22.7174 9.546 22.2414 9.546C21.7747 9.546 21.3501 9.66733 20.9674 9.91C20.5941 10.1433 20.3001 10.4607 20.0854 10.862C19.8707 11.254 19.7634 11.7113 19.7634 12.234C19.7634 12.738 19.8707 13.1953 20.0854 13.606C20.3001 14.0073 20.5941 14.3247 20.9674 14.558C21.3407 14.7913 21.7654 14.908 22.2414 14.908ZM31.5366 16.168C30.8086 16.168 30.16 15.9953 29.5906 15.65C29.0213 15.3047 28.5733 14.8333 28.2466 14.236C27.92 13.6293 27.7566 12.9527 27.7566 12.206C27.7566 11.45 27.9153 10.778 28.2326 10.19C28.5593 9.602 28.998 9.14 29.5486 8.804C30.1086 8.45867 30.734 8.286 31.4246 8.286C31.9846 8.286 32.4793 8.38867 32.9086 8.594C33.3473 8.79 33.716 9.06067 34.0146 9.406C34.3226 9.742 34.556 10.1293 34.7146 10.568C34.8826 10.9973 34.9666 11.4453 34.9666 11.912C34.9666 12.0147 34.9573 12.1313 34.9386 12.262C34.9293 12.3833 34.9153 12.5 34.8966 12.612H28.7086V11.492H34.1406L33.5246 11.996C33.6086 11.5107 33.562 11.0767 33.3846 10.694C33.2073 10.3113 32.946 10.008 32.6006 9.784C32.2553 9.56 31.8633 9.448 31.4246 9.448C30.986 9.448 30.5846 9.56 30.2206 9.784C29.8566 10.008 29.572 10.33 29.3666 10.75C29.1706 11.1607 29.0913 11.6507 29.1286 12.22C29.0913 12.7707 29.1753 13.256 29.3806 13.676C29.5953 14.0867 29.894 14.4087 30.2766 14.642C30.6686 14.866 31.0933 14.978 31.5506 14.978C32.0546 14.978 32.4793 14.8613 32.8246 14.628C33.17 14.3947 33.45 14.096 33.6646 13.732L34.7566 14.292C34.6073 14.6373 34.374 14.9547 34.0566 15.244C33.7486 15.524 33.38 15.748 32.9506 15.916C32.5306 16.084 32.0593 16.168 31.5366 16.168ZM36.6643 16V8.454H37.9383V9.84L37.7983 9.644C37.9756 9.21467 38.2463 8.89733 38.6103 8.692C38.9743 8.47733 39.4176 8.37 39.9403 8.37H40.4023V9.602H39.7443C39.2123 9.602 38.7829 9.77 38.4563 10.106C38.1296 10.4327 37.9663 10.8993 37.9663 11.506V16H36.6643Z" fill="black"/>
</svg>
